<svg width="1486" height="1282" viewBox="0 0 1486 1282" fill="none" xmlns="http://www.w3.org/2000/svg">
<path d="M422.005 507.739L422.406 655.881L467.575 602.828L491.487 639.965L571.196 539.166L611.05 703.627L693.415 568.344L847.519 751.374L908.628 679.754L972.395 751.374C983.856 646.066 989.15 598.655 985.68 528.555C982.21 458.456 903.315 390.62 852.832 287.168L807.664 271.252L759.705 318.269L725.342 313.253L696.072 393.272C648.201 407.028 608.005 451.211 592.451 494.071L488.83 408.022L422.005 507.739Z" fill="currentColor"/>
<path d="M422.005 482.184C507.664 99.443 593.621 -58.4052 852.832 19.2542L1062.73 8.64385C882.289 108.762 828.143 170.369 850.223 271.252L807.664 257.233L757.182 305.736L719.985 300.431L688.465 380.978C638.916 402.453 616.108 420.107 589.794 470.198L488.83 382.662L422.005 482.184Z" fill="currentColor"/>
<path d="M329.725 882.554C328.697 879.33 327.316 876.443 325.58 873.892C323.879 871.306 321.842 869.109 319.468 867.302C317.095 865.46 314.385 864.061 311.338 863.104C308.326 862.147 305.014 861.669 301.4 861.669C295.271 861.669 289.744 863.246 284.82 866.399C279.896 869.552 275.998 874.175 273.129 880.269C270.295 886.327 268.877 893.749 268.877 902.535C268.877 911.357 270.312 918.814 273.182 924.908C276.052 931.001 279.984 935.625 284.979 938.778C289.975 941.931 295.661 943.507 302.038 943.507C307.954 943.507 313.109 942.303 317.502 939.894C321.931 937.485 325.349 934.084 327.759 929.691C330.203 925.262 331.425 920.054 331.425 914.067L335.677 914.864H304.536V901.313H347.315V913.695C347.315 922.835 345.366 930.771 341.469 937.502C337.607 944.198 332.258 949.371 325.42 953.02C318.618 956.669 310.824 958.493 302.038 958.493C292.189 958.493 283.545 956.226 276.105 951.691C268.7 947.156 262.926 940.726 258.781 932.401C254.635 924.04 252.563 914.12 252.563 902.641C252.563 893.962 253.768 886.168 256.177 879.259C258.586 872.351 261.969 866.487 266.327 861.669C270.72 856.816 275.874 853.113 281.791 850.563C287.743 847.976 294.244 846.683 301.294 846.683C307.175 846.683 312.649 847.551 317.715 849.287C322.816 851.023 327.351 853.485 331.319 856.674C335.322 859.862 338.635 863.653 341.257 868.046C343.878 872.404 345.65 877.24 346.571 882.554H329.725ZM484.884 957.005V848.171H523.678C532.11 848.171 539.107 849.624 544.669 852.529C550.266 855.434 554.447 859.455 557.21 864.592C559.974 869.694 561.355 875.592 561.355 882.288C561.355 888.949 559.956 894.812 557.157 899.878C554.394 904.909 550.213 908.824 544.616 911.622C539.053 914.421 532.056 915.821 523.625 915.821H494.237V901.685H522.137C527.451 901.685 531.773 900.923 535.103 899.4C538.469 897.876 540.931 895.662 542.49 892.757C544.049 889.852 544.828 886.362 544.828 882.288C544.828 878.179 544.031 874.618 542.437 871.607C540.878 868.595 538.416 866.292 535.05 864.698C531.72 863.069 527.344 862.254 521.924 862.254H501.305V957.005H484.884ZM538.611 907.902L565.5 957.005H546.794L520.436 907.902H538.611ZM768.049 848.171H784.523V919.753C784.523 927.37 782.734 934.119 779.156 940C775.577 945.846 770.547 950.451 764.063 953.817C757.58 957.147 749.981 958.812 741.265 958.812C732.586 958.812 725.004 957.147 718.521 953.817C712.038 950.451 707.007 945.846 703.429 940C699.85 934.119 698.061 927.37 698.061 919.753V848.171H714.482V918.425C714.482 923.349 715.563 927.724 717.724 931.551C719.92 935.377 723.02 938.388 727.024 940.585C731.027 942.746 735.774 943.826 741.265 943.826C746.792 943.826 751.557 942.746 755.561 940.585C759.599 938.388 762.682 935.377 764.807 931.551C766.968 927.724 768.049 923.349 768.049 918.425V848.171ZM925.122 957.005V848.171H963.915C972.382 848.171 979.397 849.712 984.959 852.794C990.521 855.877 994.684 860.093 997.447 865.442C1000.21 870.756 1001.59 876.744 1001.59 883.404C1001.59 890.1 1000.19 896.123 997.394 901.472C994.631 906.786 990.45 911.002 984.853 914.12C979.291 917.202 972.294 918.743 963.862 918.743H937.185V904.82H962.374C967.724 904.82 972.063 903.899 975.394 902.057C978.724 900.179 981.168 897.628 982.727 894.404C984.286 891.181 985.065 887.514 985.065 883.404C985.065 879.295 984.286 875.645 982.727 872.457C981.168 869.268 978.706 866.771 975.34 864.964C972.01 863.157 967.617 862.254 962.161 862.254H941.542V957.005H925.122ZM1232.11 902.588C1232.11 914.209 1229.98 924.199 1225.73 932.56C1221.48 940.886 1215.65 947.298 1208.25 951.798C1200.88 956.261 1192.5 958.493 1183.11 958.493C1173.69 958.493 1165.27 956.261 1157.87 951.798C1150.5 947.298 1144.69 940.868 1140.44 932.507C1136.19 924.146 1134.06 914.173 1134.06 902.588C1134.06 890.968 1136.19 880.995 1140.44 872.67C1144.69 864.309 1150.5 857.896 1157.87 853.432C1165.27 848.933 1173.69 846.683 1183.11 846.683C1192.5 846.683 1200.88 848.933 1208.25 853.432C1215.65 857.896 1221.48 864.309 1225.73 872.67C1229.98 880.995 1232.11 890.968 1232.11 902.588ZM1215.85 902.588C1215.85 893.731 1214.41 886.274 1211.54 880.216C1208.71 874.122 1204.81 869.516 1199.85 866.399C1194.93 863.246 1189.35 861.669 1183.11 861.669C1176.84 861.669 1171.24 863.246 1166.32 866.399C1161.39 869.516 1157.5 874.122 1154.63 880.216C1151.79 886.274 1150.38 893.731 1150.38 902.588C1150.38 911.445 1151.79 918.921 1154.63 925.014C1157.5 931.072 1161.39 935.678 1166.32 938.831C1171.24 941.949 1176.84 943.507 1183.11 943.507C1189.35 943.507 1194.93 941.949 1199.85 938.831C1204.81 935.678 1208.71 931.072 1211.54 925.014C1214.41 918.921 1215.85 911.445 1215.85 902.588Z" fill="currentColor"/>
<path d="M4.70624 1280.07C2.10705 1280.07 0 1277.96 0 1275.36V1027.37C0 1024.77 2.10705 1022.67 4.70624 1022.67H111.105C130.209 1022.67 146.925 1026.44 161.253 1033.98C175.581 1041.52 186.725 1052.12 194.685 1065.78C202.645 1079.44 206.625 1095.4 206.625 1113.66C206.625 1132.1 202.519 1148.06 194.308 1161.55C186.18 1175.04 174.743 1185.43 159.996 1192.72C145.333 1200.01 128.198 1203.65 108.591 1203.65H46.9361C44.3369 1203.65 42.2299 1201.55 42.2299 1198.95V1154.06C42.2299 1151.46 44.3369 1149.36 46.9361 1149.36H94.5145C102.726 1149.36 109.722 1147.93 115.504 1145.08C121.369 1142.15 125.852 1138 128.952 1132.64C132.136 1127.28 133.728 1120.95 133.728 1113.66C133.728 1106.29 132.136 1100.01 128.952 1094.81C125.852 1089.53 121.369 1085.51 115.504 1082.74C109.722 1079.9 102.726 1078.47 94.5145 1078.47H74.5866C71.9874 1078.47 69.8804 1080.58 69.8804 1083.18V1275.36C69.8804 1277.96 67.7733 1280.07 65.1741 1280.07H4.70624Z" fill="currentColor"/>
<path d="M297.438 1022.67C300.038 1022.67 302.145 1024.77 302.145 1027.37V1275.36C302.145 1277.96 300.038 1280.07 297.438 1280.07H236.97C234.371 1280.07 232.264 1277.96 232.264 1275.36V1027.37C232.264 1024.77 234.371 1022.67 236.97 1022.67H297.438Z" fill="currentColor"/>
<path d="M553.268 1022.67C555.868 1022.67 557.975 1024.77 557.975 1027.37V1275.36C557.975 1277.96 555.868 1280.07 553.268 1280.07H502.132C500.583 1280.07 499.133 1279.31 498.255 1278.03L406.945 1145.26C406.761 1144.99 406.457 1144.83 406.131 1144.83C405.585 1144.83 405.143 1145.28 405.143 1145.82V1275.36C405.143 1277.96 403.036 1280.07 400.437 1280.07H339.969C337.369 1280.07 335.262 1277.96 335.262 1275.36V1027.37C335.262 1024.77 337.369 1022.67 339.969 1022.67H392.092C393.652 1022.67 395.11 1023.44 395.986 1024.73L485.692 1156.83C485.937 1157.19 486.344 1157.4 486.78 1157.4C487.506 1157.4 488.094 1156.81 488.094 1156.09V1027.37C488.094 1024.77 490.201 1022.67 492.8 1022.67H553.268Z" fill="currentColor"/>
<path d="M748.209 1109.03C744.707 1109.03 741.748 1106.6 740.381 1103.37C739.503 1101.3 738.448 1099.39 737.214 1097.62C734.924 1094.27 732.062 1091.45 728.627 1089.16C725.274 1086.79 721.348 1085.03 716.85 1083.88C712.434 1082.66 707.567 1082.04 702.251 1082.04C690.802 1082.04 681.028 1084.78 672.932 1090.26C664.917 1095.74 658.783 1103.63 654.53 1113.94C650.359 1124.24 648.274 1136.68 648.274 1151.23C648.274 1165.95 650.277 1178.55 654.285 1189.02C658.292 1199.49 664.263 1207.5 672.196 1213.06C680.129 1218.62 689.984 1221.4 701.761 1221.4C712.147 1221.4 720.776 1219.89 727.646 1216.87C734.597 1213.84 739.791 1209.55 743.226 1203.98C745.315 1200.6 746.77 1196.85 747.588 1192.74C748.469 1188.32 752.283 1184.76 756.77 1185.23L760.155 1185.58H710.347C706.147 1185.58 702.742 1182.18 702.742 1177.98V1144.61C702.742 1140.41 706.147 1137 710.347 1137H806.528C810.728 1137 814.133 1140.41 814.133 1144.61V1171.84C814.133 1194.74 809.267 1214.33 799.534 1230.6C789.884 1246.8 776.553 1259.23 759.542 1267.9C742.612 1276.49 723.188 1280.78 701.27 1280.78C676.816 1280.78 655.348 1275.59 636.865 1265.2C618.381 1254.81 603.946 1240.01 593.56 1220.79C583.255 1201.57 578.103 1178.71 578.103 1152.21C578.103 1131.44 581.251 1113.04 587.549 1097.01C593.928 1080.98 602.761 1067.44 614.047 1056.4C625.333 1045.28 638.378 1036.9 653.181 1031.26C667.984 1025.53 683.85 1022.67 700.779 1022.67C715.664 1022.67 729.486 1024.79 742.244 1029.05C755.084 1033.22 766.411 1039.19 776.226 1046.96C786.122 1054.65 794.096 1063.76 800.148 1074.31C804.839 1082.49 808.105 1091.28 809.946 1100.69C810.812 1105.12 807.264 1109.03 802.753 1109.03H748.209Z" fill="currentColor"/>
<path d="M994.621 1033.71C994.621 1029.51 998.026 1026.1 1002.23 1026.1H1055.22C1059.42 1026.1 1062.83 1029.51 1062.83 1033.71V1187.05C1062.83 1206.19 1058.25 1222.75 1049.09 1236.74C1040.01 1250.64 1027.33 1261.4 1011.06 1269C994.785 1276.53 975.892 1280.29 954.383 1280.29C932.71 1280.29 913.736 1276.53 897.461 1269C881.186 1261.4 868.509 1250.64 859.431 1236.74C850.435 1222.75 845.937 1206.19 845.937 1187.05V1033.71C845.937 1029.51 849.341 1026.1 853.541 1026.1H906.541C910.74 1026.1 914.145 1029.51 914.145 1033.71V1181.17C914.145 1188.94 915.862 1195.89 919.297 1202.02C922.732 1208.07 927.476 1212.82 933.528 1216.25C939.662 1219.69 946.613 1221.4 954.383 1221.4C962.234 1221.4 969.186 1219.69 975.238 1216.25C981.29 1212.82 986.034 1208.07 989.469 1202.02C992.904 1195.89 994.621 1188.94 994.621 1181.17V1033.71Z" fill="currentColor"/>
<path d="M1155.85 1026.1C1160.05 1026.1 1163.45 1029.51 1163.45 1033.71V1272.68C1163.45 1276.88 1160.05 1280.29 1155.85 1280.29H1102.85C1098.65 1280.29 1095.25 1276.88 1095.25 1272.68V1033.71C1095.25 1029.51 1098.65 1026.1 1102.85 1026.1H1155.85Z" fill="currentColor"/>
<path d="M1195.78 1033.71C1195.78 1029.51 1199.18 1026.1 1203.38 1026.1H1275.57C1278.66 1026.1 1281.44 1027.97 1282.61 1030.82L1338.51 1167.05C1338.85 1167.87 1339.65 1168.41 1340.54 1168.41C1341.43 1168.41 1342.23 1167.87 1342.57 1167.05L1398.47 1030.82C1399.64 1027.97 1402.42 1026.1 1405.5 1026.1H1477.69C1481.89 1026.1 1485.3 1029.51 1485.3 1033.71V1272.68C1485.3 1276.88 1481.89 1280.29 1477.69 1280.29H1426.17C1421.97 1280.29 1418.56 1276.88 1418.56 1272.68V1133.26C1418.56 1132.62 1418.04 1132.1 1417.4 1132.1C1416.92 1132.1 1416.49 1132.39 1416.32 1132.85L1362.51 1275.37C1361.4 1278.33 1358.56 1280.29 1355.4 1280.29H1325.69C1322.52 1280.29 1319.68 1278.32 1318.57 1275.35L1264.76 1131.87C1264.59 1131.41 1264.16 1131.11 1263.68 1131.11C1263.04 1131.11 1262.52 1131.63 1262.52 1132.27V1272.68C1262.52 1276.88 1259.11 1280.29 1254.91 1280.29H1203.38C1199.18 1280.29 1195.78 1276.88 1195.78 1272.68V1033.71Z" fill="currentColor"/>
</svg>
