<svg width="1000" height="1000" viewBox="0 0 1000 1000" fill="none" xmlns="http://www.w3.org/2000/svg">
<rect width="1000" height="1000" rx="160" fill="#0A0A0A"/>
<path d="M180 631.739L180.401 779.881L225.57 726.828L249.482 763.965L329.191 663.166L369.045 827.627L451.41 692.344L605.514 875.374L666.624 803.754L730.39 875.374C741.851 770.066 747.145 722.655 743.675 652.555C740.205 582.456 661.31 514.62 610.828 411.168L565.659 395.252L517.701 442.269L483.338 437.253L454.067 517.272C406.196 531.028 366 575.211 350.446 618.071L246.825 532.022L180 631.739Z" fill="#E85C00"/>
<path d="M180 606.184C265.66 223.443 351.616 65.5948 610.828 143.254L820.727 132.644C640.285 232.762 586.139 294.369 608.218 395.252L565.659 381.233L515.177 429.736L477.98 424.431L446.46 504.978C396.911 526.453 374.103 544.107 347.789 594.198L246.825 506.662L180 606.184Z" fill="#E85C00"/>
</svg>
