<svg width="640" height="755" viewBox="412 0 580 760" fill="none" xmlns="http://www.w3.org/2000/svg">
<path d="M422.005 507.739L422.406 655.881L467.575 602.828L491.487 639.965L571.196 539.166L611.05 703.627L693.415 568.344L847.519 751.374L908.628 679.754L972.395 751.374C983.856 646.066 989.15 598.655 985.68 528.555C982.21 458.456 903.315 390.62 852.832 287.168L807.664 271.252L759.705 318.269L725.342 313.253L696.072 393.272C648.201 407.028 608.005 451.211 592.451 494.071L488.83 408.022L422.005 507.739Z" fill="currentColor"/>
<path d="M422.005 482.184C507.664 99.443 593.621 -58.4052 852.832 19.2542L1062.73 8.64385C882.289 108.762 828.143 170.369 850.223 271.252L807.664 257.233L757.182 305.736L719.985 300.431L688.465 380.978C638.916 402.453 616.108 420.107 589.794 470.198L488.83 382.662L422.005 482.184Z" fill="currentColor"/>
</svg>
